<svg viewBox="0 0 100 100" fill="none" xmlns="http://www.w3.org/2000/svg">
  <defs>
    <linearGradient id="favGold1" x1="0%" y1="0%" x2="100%" y2="100%">
      <stop offset="0%" stopColor="#fef08a" />
      <stop offset="30%" stopColor="#eab308" />
      <stop offset="70%" stopColor="#ca8a04" />
      <stop offset="100%" stopColor="#854d0e" />
    </linearGradient>
    <linearGradient id="favGold2" x1="0%" y1="100%" x2="100%" y2="0%">
      <stop offset="0%" stopColor="#fef9c3" />
      <stop offset="50%" stopColor="#f59e0b" />
      <stop offset="100%" stopColor="#d97706" />
    </linearGradient>
    <radialGradient id="favBlueBg" cx="50%" cy="50%" r="50%">
      <stop offset="0%" stopColor="#1e3a8a" />
      <stop offset="60%" stopColor="#0f172a" />
      <stop offset="100%" stopColor="#020617" />
    </radialGradient>
    <linearGradient id="favRedRing" x1="0%" y1="0%" x2="100%" y2="100%">
      <stop offset="0%" stopColor="#ef4444" />
      <stop offset="50%" stopColor="#b91c1c" />
      <stop offset="100%" stopColor="#7f1d1d" />
    </linearGradient>
  </defs>
  <circle cx="50" cy="50" r="48" fill="url(#favGold1)" stroke="#fef08a" strokeWidth="2" />
  <circle cx="50" cy="50" r="42" fill="url(#favRedRing)" stroke="#f59e0b" strokeWidth="1" />
  <circle cx="50" cy="50" r="36" fill="url(#favBlueBg)" stroke="url(#favGold2)" strokeWidth="2.5" />
  <polygon points="50,19 51.5,23 55,23 52,25.5 53.5,29 50,27 46.5,29 48,25.5 45,23 48.5,23" fill="#fef08a" />
  <text x="50" y="62" textAnchor="middle" fontFamily="Arial, sans-serif" fontWeight="900" fontSize="34" letterSpacing="-1" fill="url(#favGold2)" stroke="#78350f" strokeWidth="1.2">
    CS
  </text>
  <polygon points="50,73 51.5,76 54,76 52,77.5 53,80 50,78.5 47,80 48,77.5 46,76 48.5,76" fill="#fef08a" />
</svg>